<?xml version="1.0" standalone="no"?>
<svg xmlns:xlink="http://www.w3.org/1999/xlink" id="wave" style="transform:rotate(0deg); transition: 0.3s" viewBox="0 0 1440 400" version="1.1" xmlns="http://www.w3.org/2000/svg"><defs><linearGradient id="sw-gradient-0" x1="0" x2="0" y1="1" y2="0"><stop stop-color="rgba(33, 37, 41, 1)" offset="0%"/><stop stop-color="rgba(33, 37, 41, 1)" offset="100%"/></linearGradient></defs><path style="transform:translate(0, 0px); opacity:1" fill="url(#sw-gradient-0)" d="M0,80L24,73.3C48,67,96,53,144,53.3C192,53,240,67,288,93.3C336,120,384,160,432,200C480,240,528,280,576,260C624,240,672,160,720,133.3C768,107,816,133,864,133.3C912,133,960,107,1008,106.7C1056,107,1104,133,1152,153.3C1200,173,1248,187,1296,180C1344,173,1392,147,1440,160C1488,173,1536,227,1584,266.7C1632,307,1680,333,1728,300C1776,267,1824,173,1872,160C1920,147,1968,213,2016,240C2064,267,2112,253,2160,240C2208,227,2256,213,2304,193.3C2352,173,2400,147,2448,113.3C2496,80,2544,40,2592,33.3C2640,27,2688,53,2736,113.3C2784,173,2832,267,2880,313.3C2928,360,2976,360,3024,353.3C3072,347,3120,333,3168,326.7C3216,320,3264,320,3312,273.3C3360,227,3408,133,3432,86.7L3456,40L3456,400L3432,400C3408,400,3360,400,3312,400C3264,400,3216,400,3168,400C3120,400,3072,400,3024,400C2976,400,2928,400,2880,400C2832,400,2784,400,2736,400C2688,400,2640,400,2592,400C2544,400,2496,400,2448,400C2400,400,2352,400,2304,400C2256,400,2208,400,2160,400C2112,400,2064,400,2016,400C1968,400,1920,400,1872,400C1824,400,1776,400,1728,400C1680,400,1632,400,1584,400C1536,400,1488,400,1440,400C1392,400,1344,400,1296,400C1248,400,1200,400,1152,400C1104,400,1056,400,1008,400C960,400,912,400,864,400C816,400,768,400,720,400C672,400,624,400,576,400C528,400,480,400,432,400C384,400,336,400,288,400C240,400,192,400,144,400C96,400,48,400,24,400L0,400Z"/><defs><linearGradient id="sw-gradient-1" x1="0" x2="0" y1="1" y2="0"><stop stop-color="rgba(33, 37, 41, 1)" offset="0%"/><stop stop-color="rgba(251, 254, 249, 1)" offset="100%"/></linearGradient></defs><path style="transform:translate(0, 50px); opacity:0.9" fill="url(#sw-gradient-1)" d="M0,80L24,93.3C48,107,96,133,144,180C192,227,240,293,288,320C336,347,384,333,432,293.3C480,253,528,187,576,160C624,133,672,147,720,173.3C768,200,816,240,864,273.3C912,307,960,333,1008,300C1056,267,1104,173,1152,133.3C1200,93,1248,107,1296,93.3C1344,80,1392,40,1440,26.7C1488,13,1536,27,1584,73.3C1632,120,1680,200,1728,226.7C1776,253,1824,227,1872,193.3C1920,160,1968,120,2016,146.7C2064,173,2112,267,2160,260C2208,253,2256,147,2304,133.3C2352,120,2400,200,2448,193.3C2496,187,2544,93,2592,66.7C2640,40,2688,80,2736,113.3C2784,147,2832,173,2880,153.3C2928,133,2976,67,3024,33.3C3072,0,3120,0,3168,40C3216,80,3264,160,3312,173.3C3360,187,3408,133,3432,106.7L3456,80L3456,400L3432,400C3408,400,3360,400,3312,400C3264,400,3216,400,3168,400C3120,400,3072,400,3024,400C2976,400,2928,400,2880,400C2832,400,2784,400,2736,400C2688,400,2640,400,2592,400C2544,400,2496,400,2448,400C2400,400,2352,400,2304,400C2256,400,2208,400,2160,400C2112,400,2064,400,2016,400C1968,400,1920,400,1872,400C1824,400,1776,400,1728,400C1680,400,1632,400,1584,400C1536,400,1488,400,1440,400C1392,400,1344,400,1296,400C1248,400,1200,400,1152,400C1104,400,1056,400,1008,400C960,400,912,400,864,400C816,400,768,400,720,400C672,400,624,400,576,400C528,400,480,400,432,400C384,400,336,400,288,400C240,400,192,400,144,400C96,400,48,400,24,400L0,400Z"/><defs><linearGradient id="sw-gradient-2" x1="0" x2="0" y1="1" y2="0"><stop stop-color="rgba(33, 37, 41, 1)" offset="0%"/><stop stop-color="rgba(251, 254, 249, 1)" offset="100%"/></linearGradient></defs><path style="transform:translate(0, 100px); opacity:0.8" fill="url(#sw-gradient-2)" d="M0,160L24,173.3C48,187,96,213,144,233.3C192,253,240,267,288,253.3C336,240,384,200,432,153.3C480,107,528,53,576,26.7C624,0,672,0,720,26.7C768,53,816,107,864,120C912,133,960,107,1008,106.7C1056,107,1104,133,1152,146.7C1200,160,1248,160,1296,146.7C1344,133,1392,107,1440,133.3C1488,160,1536,240,1584,260C1632,280,1680,240,1728,246.7C1776,253,1824,307,1872,313.3C1920,320,1968,280,2016,226.7C2064,173,2112,107,2160,100C2208,93,2256,147,2304,166.7C2352,187,2400,173,2448,160C2496,147,2544,133,2592,146.7C2640,160,2688,200,2736,186.7C2784,173,2832,107,2880,73.3C2928,40,2976,40,3024,93.3C3072,147,3120,253,3168,273.3C3216,293,3264,227,3312,186.7C3360,147,3408,133,3432,126.7L3456,120L3456,400L3432,400C3408,400,3360,400,3312,400C3264,400,3216,400,3168,400C3120,400,3072,400,3024,400C2976,400,2928,400,2880,400C2832,400,2784,400,2736,400C2688,400,2640,400,2592,400C2544,400,2496,400,2448,400C2400,400,2352,400,2304,400C2256,400,2208,400,2160,400C2112,400,2064,400,2016,400C1968,400,1920,400,1872,400C1824,400,1776,400,1728,400C1680,400,1632,400,1584,400C1536,400,1488,400,1440,400C1392,400,1344,400,1296,400C1248,400,1200,400,1152,400C1104,400,1056,400,1008,400C960,400,912,400,864,400C816,400,768,400,720,400C672,400,624,400,576,400C528,400,480,400,432,400C384,400,336,400,288,400C240,400,192,400,144,400C96,400,48,400,24,400L0,400Z"/></svg>